<svg xmlns="http://www.w3.org/2000/svg" version="1.1" xmlns:xlink="http://www.w3.org/1999/xlink" xmlns:svgjs="http://svgjs.com/svgjs" width="512" height="512" x="0" y="0" viewBox="0 0 512 512" style="enable-background:new 0 0 512 512" xml:space="preserve" class=""><g>
<g xmlns="http://www.w3.org/2000/svg">
	<g>
		<path d="M71.002,256.001c0-77.879,47.891-143.606,114.279-171.048h0.01l21.3-38.26C112.578,68.687,41.002,153.352,41.002,256.001    c0,96.593,63.887,179.038,152.718,205.828l2.26-30.78C122.13,405.763,71.002,335.923,71.002,256.001z" fill="#ffffff" data-original="#000000" class=""></path>
	</g>
</g>
<g xmlns="http://www.w3.org/2000/svg">
	<g>
		<path d="M318.279,50.173l-2.26,30.78c73.85,25.286,124.979,95.125,124.979,175.048c0,77.803-47.835,143.583-114.279,171.048h-0.01    l-21.3,38.26c94.014-21.994,165.588-106.659,165.588-209.308C470.997,159.41,407.111,76.962,318.279,50.173z" fill="#ffffff" data-original="#000000" class=""></path>
	</g>
</g>
<g xmlns="http://www.w3.org/2000/svg">
	<g>
		<path d="M398.93,220.509c-2.694-4.584-7.614-7.399-12.932-7.399H276.241l14.459-197.009c0.515-7.019-3.918-13.452-10.66-15.469    c-6.742-2.021-13.98,0.923-17.404,7.072L112.897,276.592c-2.587,4.646-2.521,10.313,0.173,14.898    c2.694,4.584,7.615,7.399,12.932,7.399h109.758L221.3,495.899c-0.515,7.019,3.918,13.451,10.661,15.468    c6.797,2.036,14.01-0.976,17.404-7.072l149.738-268.887C401.69,230.762,401.624,225.094,398.93,220.509z" fill="#ffffff" data-original="#000000" class=""></path>
	</g>
</g>
<g xmlns="http://www.w3.org/2000/svg">
</g>
<g xmlns="http://www.w3.org/2000/svg">
</g>
<g xmlns="http://www.w3.org/2000/svg">
</g>
<g xmlns="http://www.w3.org/2000/svg">
</g>
<g xmlns="http://www.w3.org/2000/svg">
</g>
<g xmlns="http://www.w3.org/2000/svg">
</g>
<g xmlns="http://www.w3.org/2000/svg">
</g>
<g xmlns="http://www.w3.org/2000/svg">
</g>
<g xmlns="http://www.w3.org/2000/svg">
</g>
<g xmlns="http://www.w3.org/2000/svg">
</g>
<g xmlns="http://www.w3.org/2000/svg">
</g>
<g xmlns="http://www.w3.org/2000/svg">
</g>
<g xmlns="http://www.w3.org/2000/svg">
</g>
<g xmlns="http://www.w3.org/2000/svg">
</g>
<g xmlns="http://www.w3.org/2000/svg">
</g>
</g></svg>